<svg width="17" height="14" viewBox="0 0 17 14" fill="none" xmlns="http://www.w3.org/2000/svg">
<path d="M5.87719 13.1105C11.9134 13.1105 15.2159 8.24255 15.2159 4.02241C15.2159 3.88556 15.2128 3.74567 15.2066 3.60882C15.849 3.15669 16.4034 2.59667 16.8438 1.95507C16.2454 2.21412 15.6102 2.38331 14.9597 2.45685C15.6446 2.05732 16.1574 1.42968 16.4031 0.69027C15.7588 1.06188 15.0541 1.32402 14.3194 1.46545C13.8243 0.953537 13.1697 0.614591 12.4569 0.501014C11.744 0.387437 11.0125 0.505555 10.3756 0.837106C9.73861 1.16866 9.23162 1.69517 8.93298 2.33525C8.63435 2.97533 8.5607 3.69333 8.72344 4.37822C7.41875 4.31451 6.14237 3.98468 4.97707 3.41013C3.81177 2.83557 2.78355 2.02912 1.95906 1.04304C1.54002 1.74613 1.41179 2.57811 1.60044 3.3699C1.78909 4.16169 2.28046 4.85387 2.97469 5.30576C2.4535 5.28966 1.94373 5.1531 1.4875 4.90737V4.94691C1.48703 5.68475 1.74915 6.39997 2.22929 6.97101C2.70943 7.54205 3.37797 7.93365 4.12125 8.07925C3.63845 8.2078 3.13174 8.22653 2.64031 8.13399C2.85005 8.76853 3.25813 9.32353 3.8076 9.72151C4.35706 10.1195 5.0205 10.3406 5.70531 10.354C4.5427 11.2427 3.10653 11.7248 1.62813 11.7225C1.36594 11.7221 1.10402 11.7065 0.84375 11.6757C2.34565 12.6133 4.09277 13.1114 5.87719 13.1105Z" fill="#282938"/>
</svg>
